PathFileType	4	(X/Y/Z)	c:/Users/goper/Files/vsCode/490R/osim_files/C10/C10_SSWS_02.trc
DataRate	CameraRate	NumFrames	NumMarkers	Units                	OrigDataRate	OrigDataStartFrame	OrigNumFrames
250.00	250.00	8	36	mm	250.0	1321	2641
                Frame#	Time	LPSIS			LASIS			LTH1			LTH2			LTH3			LTH4			LLFE			LMFE			LSH1			LSH2			LSH3			LSH4			LLMAL			LMMAL			LCAL			LMTP5			LTOE			LMTP1			RPSIS			RASIS			RTH1			RTH2			RTH3			RTH4			RLFE			RMFE			RSH1			RSH2			RSH3			RSH4			RLMAL			RMMAL			RCAL			RMTP1			RTOE			RMTP5		
		X1	Y1	Z1	X2	Y2	Z2	X3	Y3	Z3	X4	Y4	Z4	X5	Y5	Z5	X6	Y6	Z6	X7	Y7	Z7	X8	Y8	Z8	X9	Y9	Z9	X10	Y10	Z10	X11	Y11	Z11	X12	Y12	Z12	X13	Y13	Z13	X14	Y14	Z14	X15	Y15	Z15	X16	Y16	Z16	X17	Y17	Z17	X18	Y18	Z18	X19	Y19	Z19	X20	Y20	Z20	X21	Y21	Z21	X22	Y22	Z22	X23	Y23	Z23	X24	Y24	Z24	X25	Y25	Z25	X26	Y26	Z26	X27	Y27	Z27	X28	Y28	Z28	X29	Y29	Z29	X30	Y30	Z30	X31	Y31	Z31	X32	Y32	Z32	X33	Y33	Z33	X34	Y34	Z34	X35	Y35	Z35	X36	Y36	Z36

1321	5.28000	377.76364	1011.19409	276.37881	236.40125	987.77307	431.21765	331.68219	769.11499	465.71558	332.52283	720.89020	461.42310	270.55096	761.00244	459.73816	281.16028	715.66559	453.45819	375.30753	480.82898	385.69174	369.85739	473.73990	268.02524	452.34979	411.38068	387.63394	463.55902	365.29636	388.61633	394.14709	394.22058	378.37869	411.45630	349.14258	370.15964	506.24930	95.79399	329.27570	0.00000	0.00000	0.00000	580.67053	50.37674	288.61728	407.62036	30.53371	337.54013	357.65286	48.30816	273.19510	397.14590	27.83930	228.83478	365.65677	1001.03748	199.42271	200.45792	980.29877	97.16449	205.63651	708.58368	52.95872	180.73335	671.98267	57.58287	152.05937	738.08258	53.24422	133.78145	697.82758	56.98514	61.50062	490.33206	121.04651	38.41537	495.29385	234.30331	94.47625	383.01389	118.09489	74.15717	343.91220	115.80850	35.06712	405.71045	115.53446	25.59440	363.39511	113.41736	-47.84253	104.10157	156.61385	-66.21924	122.56581	236.53233	-20.67521	35.99208	202.82922	-201.67773	102.98481	210.54413	-218.43376	133.95998	172.38640	-173.74776	101.12638	115.95681
1322	5.28400	371.25226	1010.27808	275.50284	231.44046	987.06921	430.99521	328.08847	768.98895	465.19202	329.18958	720.80402	460.98190	266.95325	760.52527	459.68930	277.71622	715.22577	453.29022	372.72641	480.74487	385.36362	366.50833	473.52664	267.75723	450.26593	411.92999	386.98367	461.72311	365.91080	387.97748	392.16959	394.35443	378.12338	409.79434	349.44604	369.90671	505.86945	96.54774	328.88037	0.00000	0.00000	0.00000	580.37958	51.48717	288.26898	407.65732	30.55051	337.45746	357.58734	48.19539	273.14511	397.13724	27.87119	228.79196	359.68887	1000.39746	198.61574	194.00305	979.16949	97.18879	201.40138	707.17865	52.92667	176.83678	670.31415	57.44056	147.98177	735.17053	52.81167	129.45569	695.71814	56.62730	56.35169	489.10785	120.98001	34.85641	494.02490	235.01425	87.45191	381.63242	118.24991	65.88120	342.81393	115.54767	28.11921	405.52780	115.78918	17.67413	363.27173	113.62122	-60.90813	105.25050	156.51308	-78.15245	123.81773	236.63206	-34.86623	36.17434	202.04268	-214.32396	106.94837	211.79271	-230.68332	138.37563	173.83873	-187.15910	104.78499	116.91812
1323	5.28800	366.53851	1010.69043	274.65814	226.55569	986.38062	430.82892	324.42255	768.94305	464.69412	325.73557	720.77142	460.54468	263.19028	760.12347	459.63586	274.14554	714.88373	453.13290	370.12137	480.76279	384.99414	363.21771	473.29883	267.44748	448.01001	412.55417	386.27536	459.90045	366.56503	387.30313	389.94702	394.46515	377.79486	407.94995	349.74298	369.61530	505.50854	97.34985	328.45917	0.00000	0.00000	0.00000	580.10297	52.70928	287.84756	407.66959	30.61272	337.34247	357.52466	48.13943	273.10147	397.03851	27.83760	228.78479	353.72476	999.78729	197.77899	187.49519	978.08966	97.22034	197.21072	705.90204	52.85623	172.97192	668.76569	57.16910	143.27809	733.41022	52.49589	125.25760	693.64355	56.22553	51.03257	488.05905	120.87942	31.11482	492.81259	235.59032	79.37952	379.99869	117.05025	57.72353	341.78012	115.12564	21.07008	404.99435	115.91777	9.94307	362.98605	113.88306	-73.40585	106.43529	156.54666	-89.52448	125.08514	236.57782	-48.03457	37.08812	201.85167	-226.13597	110.72404	213.09256	-242.35594	142.53848	175.36780	-199.96765	108.09120	118.03632
1324	5.29200	360.84225	1010.14978	273.92474	221.58751	985.68903	430.61249	320.54791	768.84216	464.19879	322.11755	720.68427	460.10782	259.41983	759.73865	459.61221	270.44131	714.48737	452.82608	367.27866	480.79712	384.68402	359.79196	473.07632	267.19736	445.76904	413.15662	385.63287	457.94775	367.26688	386.63553	387.72241	394.60059	377.56207	407.55576	352.97510	377.25784	505.06512	98.20465	328.09729	0.00000	0.00000	0.00000	579.78888	53.99226	287.44757	407.68744	30.68226	337.26736	357.46698	48.06958	273.05637	396.99573	27.82589	228.77536	347.74152	999.19586	196.93277	181.00034	977.01379	97.24193	192.93738	704.72009	52.75915	169.12202	667.30389	56.81158	138.77856	731.87360	52.07443	120.65007	691.04517	56.07384	45.53193	487.10663	120.79826	27.51510	491.60321	236.11555	72.12070	378.65143	116.59006	49.84536	340.87186	114.78580	14.34879	404.79797	116.13720	1.71565	362.87531	113.46744	-85.30623	107.54696	156.59627	-100.26591	126.23783	236.66270	-60.56286	37.74774	201.53555	-237.51614	114.16338	214.48315	-253.37958	146.41678	176.94154	-212.11078	111.51868	119.01396
1325	5.29600	355.08191	1009.55432	273.17438	216.60542	984.97266	430.46613	316.67383	768.83093	463.72586	318.36414	720.60773	459.68817	255.42049	759.40167	459.48294	266.69409	714.45245	453.63684	364.37521	480.85553	384.36746	356.26343	472.82812	266.93137	443.25803	413.75870	385.01559	455.85284	367.96915	386.01205	385.36716	394.77411	377.34222	406.05444	353.26459	377.27423	504.60947	99.07983	327.71085	0.00000	0.00000	0.00000	579.46820	55.33154	287.09720	407.70593	30.73669	337.17422	356.67477	48.18990	273.09256	396.93976	27.82184	228.74197	341.76459	998.61627	196.05774	174.47935	975.97375	97.31831	188.74602	703.77728	52.61391	165.26942	666.10046	56.31451	134.17906	730.44318	51.72774	116.99236	690.16663	54.48092	39.35061	486.18460	121.84006	23.68153	490.43695	236.60834	64.89274	377.39987	116.06719	42.02876	339.96817	114.34295	7.18817	404.24265	116.25584	-5.73765	362.54819	113.89858	-96.60541	108.58647	156.70334	-110.60429	127.32224	236.64473	-72.47523	38.30522	201.26337	-246.54613	117.87608	215.86772	-263.87762	149.97232	178.53659	-223.69214	114.47841	120.15960
1326	5.30000	349.25479	1008.95331	272.43423	211.68584	983.73865	431.80713	312.58304	768.75769	463.25287	314.54391	720.62592	459.28064	251.22380	759.16119	459.42374	262.75983	714.31714	453.72150	361.32944	480.94559	384.07883	352.63361	472.55392	266.69882	440.75604	414.42264	384.43890	453.61493	368.72211	385.40604	382.86441	394.99481	377.17416	403.74405	353.61984	377.00461	504.07227	100.02909	327.40079	0.00000	0.00000	0.00000	579.09265	56.75924	286.72409	407.57669	30.98825	337.38623	356.56448	48.16284	273.03030	396.85086	27.81030	228.77396	335.72263	997.99091	195.20706	167.99071	974.95905	97.38975	184.39014	702.98407	52.58168	161.26044	665.13550	55.77575	129.54762	729.23535	51.42587	112.75997	688.72125	53.80914	33.61462	485.33102	122.06129	19.55520	489.26151	236.99948	57.84323	376.28149	115.51669	34.34264	339.13593	113.89642	0.80207	404.07474	116.40527	-13.39835	362.27640	113.94030	-107.29424	109.51270	156.88898	-120.36583	128.30486	236.70000	-83.71696	38.80199	201.02026	-258.33063	120.30020	217.40649	-273.80161	153.12169	180.16251	-234.61024	117.12218	121.34958
1327	5.30400	343.39322	1008.33521	271.67535	206.55219	983.04999	431.59921	308.37576	768.67767	462.79114	310.55008	720.59174	458.88205	246.96381	758.77856	459.39679	258.68311	714.10669	453.69388	358.18384	480.99463	383.84659	348.76926	472.19824	266.57074	438.09213	415.06055	383.87695	451.35422	369.48807	384.86398	380.26077	395.13660	376.95737	401.43469	353.96777	376.72903	503.45114	101.01125	327.11273	0.00000	0.00000	0.00000	578.68555	58.24907	286.42447	407.59415	30.83499	336.96201	356.44531	48.10065	272.96710	396.82953	27.87386	228.71648	329.69595	997.39111	194.33527	161.44746	974.00842	97.48351	180.00909	702.43756	52.51841	157.07832	664.41650	55.19444	124.82365	728.28229	51.21065	108.49689	687.65430	53.02766	27.85172	484.44489	122.35748	15.35581	488.11884	237.34807	50.78355	375.17459	114.94180	27.01232	338.36688	113.46586	-6.06632	403.39816	116.56235	-20.53224	361.92630	114.14112	-117.30396	110.28342	157.09178	-129.49448	129.10832	236.84332	-94.17097	39.18673	200.87387	-267.72180	122.80053	218.93703	-283.04370	155.77759	181.87148	-244.92673	119.10513	122.78210
1328	5.30800	337.48285	1007.73029	270.88950	201.43321	982.33893	431.42883	304.01523	768.62079	462.33450	306.43884	720.59772	458.49384	242.60655	758.45117	459.44678	255.04645	712.32007	448.58221	355.38721	481.24228	383.77698	344.83606	471.82019	266.45972	435.36026	415.72525	383.34128	448.84851	370.17807	384.34393	377.53339	395.32953	376.79822	399.04965	354.38141	376.59000	503.11554	101.91702	326.32736	0.00000	0.00000	0.00000	578.29211	59.80526	286.15845	407.58835	30.92964	336.89526	356.35486	47.99187	272.93915	396.76852	27.90568	228.71616	323.68704	996.77020	193.49495	154.87511	973.08350	97.58193	175.37825	702.11841	52.55887	152.59149	663.90637	54.61320	120.05019	727.66046	50.99255	103.91367	686.86548	52.24231	21.96424	483.68033	122.77043	10.83346	486.96515	237.71457	43.95880	374.25320	114.39687	19.37341	337.44754	112.65955	-12.58432	403.17172	116.69504	-27.58023	361.55710	114.32276	-126.71657	110.78879	157.31830	-137.82318	129.59007	236.90936	-103.90161	39.35324	200.80367	-276.33173	124.75172	220.50258	-291.72263	157.96425	183.60516	-254.47215	121.08883	123.94022
